<svg width="590" height="372" viewBox="0 0 590 372" fill="none" xmlns="http://www.w3.org/2000/svg">
<path d="M0 363.869V309.007L119.179 163.911V162.467H4.25604V86.6709H234.811V147.308L126.273 286.629V288.072H239.067V363.869H0ZM427.19 372C397.89 372 369.59 368.612 342.289 361.836C314.987 355.06 292.513 346.252 274.867 335.41L312.823 248C329.47 257.825 347.948 265.787 368.259 271.885C388.901 277.645 408.877 280.525 428.189 280.525C439.509 280.525 448.331 279.847 454.658 278.492C461.316 276.797 466.144 274.596 469.141 271.885C472.137 268.836 473.636 265.279 473.636 261.213C473.636 254.776 470.14 249.694 463.148 245.967C456.156 242.24 446.833 239.191 435.181 236.82C423.86 234.109 411.374 231.399 397.724 228.689C384.073 225.639 370.256 221.744 356.273 217C342.621 212.256 329.969 205.989 318.317 198.197C306.996 190.404 297.841 180.24 290.849 167.705C283.857 154.83 280.361 138.907 280.361 119.934C280.361 97.9122 286.354 77.9238 298.34 59.9672C310.659 41.6721 328.805 27.1042 352.777 16.2623C377.081 5.42043 407.213 0 443.171 0C466.81 0 490.116 2.54098 513.09 7.62295C536.063 12.7049 556.705 20.4976 575.017 31L539.559 117.902C522.245 109.093 505.432 102.486 489.118 98.082C473.136 93.6779 457.488 91.4754 442.172 91.4754C430.852 91.4754 421.862 92.4918 415.204 94.5246C408.545 96.5574 403.717 99.2681 400.721 102.656C398.057 106.043 396.725 109.77 396.725 113.836C396.725 119.934 400.221 124.847 407.213 128.574C414.205 131.961 423.36 134.842 434.681 137.213C446.334 139.584 458.986 142.125 472.637 144.836C486.621 147.547 500.437 151.273 514.089 156.016C527.739 160.76 540.224 167.027 551.545 174.82C563.197 182.612 572.52 192.776 579.512 205.311C586.504 217.847 590 233.432 590 252.066C590 273.748 583.84 293.738 571.522 312.033C559.536 329.989 541.556 344.557 517.584 355.738C493.612 366.58 463.481 372 427.19 372Z" fill="#FFEA00"/>
<path d="M181 0H51V45H181V0Z" fill="#FFEA00"/>
</svg>
